<?xml version="1.0" standalone="no"?>
<!DOCTYPE svg PUBLIC "-//W3C//DTD SVG 1.1//EN" "http://www.w3.org/Graphics/SVG/1.1/DTD/svg11.dtd" >
<svg xmlns="http://www.w3.org/2000/svg">
<metadata>
This is a custom SVG webfont generated by Font Squirrel.
Copyright   : Copyright c Thirstype Inc 2003 All rights reserved
Designer    : chester  Rick Valicenti
Foundry     : Thirstype Inc
Foundry URL : thirstypecom
</metadata>
<defs>
<font id="ApexSerifBookItalic" horiz-adv-x="1433" >
<font-face units-per-em="2048" ascent="1536" descent="-512" />
<missing-glyph horiz-adv-x="409" />
<glyph unicode=" "  horiz-adv-x="409" />
<glyph unicode="&#x09;" horiz-adv-x="409" />
<glyph unicode="&#xa0;" horiz-adv-x="409" />
<glyph unicode="!" horiz-adv-x="450" d="M63 0l25 201h201l-25 -201h-201zM176 430l74 1106h205l-197 -1106h-82z" />
<glyph unicode="&#x22;" horiz-adv-x="737" d="M244 1024v512h205l-127 -512h-78zM530 1024v512h205l-127 -512h-78z" />
<glyph unicode="#" horiz-adv-x="1198" d="M59 770l58 135h184l121 240h-174l57 135h184l129 256h138l-129 -256h309l129 256h137l-129 -256h184l-57 -135h-194l-121 -240h184l-57 -135h-195l-129 -258h-137l129 258h-309l-129 -258h-138l129 258h-174zM438 905h310l120 240h-309z" />
<glyph unicode="$" horiz-adv-x="1228" d="M127 297l14 119q47 -20 175 -39t239 -19q387 0 410 195q6 49 -12.5 81t-66.5 50t-101.5 26.5t-145.5 14.5q-264 23 -364.5 71t-84.5 193q39 311 543 311q39 0 62 -2l108 238h154l-125 -248q145 -18 201 -45l-15 -119q-152 53 -401 54q-184 0 -282.5 -40t-112.5 -149 q-4 -43 15 -69.5t63 -40t98.5 -20.5t130.5 -13q23 -2 35 -2q129 -12 202.5 -25.5t137 -43.5t86 -83t12.5 -137q-41 -319 -563 -319h-41l-109 -236h-153l122 248q-182 22 -231 49z" />
<glyph unicode="%" horiz-adv-x="1894" d="M209 1157q25 201 121 300t278.5 99t254 -99t46.5 -300q-23 -201 -119 -300t-278 -99t-254 99t-49 300zM262 0l1272 1536h158l-1272 -1536h-158zM340 1157.5q-18 -151.5 25 -214t161 -62.5q117 0 175.5 62.5t77 214t-24.5 214t-160 62.5q-119 0 -177.5 -62.5t-76.5 -214z M1042.5 379q24.5 201 121 300t278.5 99t253.5 -99t47 -300t-120.5 -300t-278.5 -99t-254 99t-47 300zM1173.5 378.5q-18.5 -151.5 24.5 -214t162 -62.5q117 0 175 62.5t76.5 214t-24.5 214t-162 62.5q-117 0 -175 -62.5t-76.5 -214z" />
<glyph unicode="&#x26;" horiz-adv-x="1523" d="M80 614q37 297 229.5 466t483.5 169q59 0 112 -6q53 147 70 293h143q-23 -178 -87 -352t-169.5 -334t-267.5 -285t-358 -182q37 -135 144 -206t273 -71q449 0 492 375q10 68 -10 150l-5 8l-208 25l12 102h577l-12 -102l-215 -25l2 -8q14 -78 6 -150q-29 -229 -198.5 -365 t-456.5 -136q-291 0 -441.5 168.5t-115.5 465.5zM219 516q227 70 386 229.5t253 372.5q-53 4 -82 4q-227 0 -372.5 -132t-176.5 -376q-8 -69 -8 -98z" />
<glyph unicode="'" horiz-adv-x="450" d="M244 1024v512h205l-127 -512h-78z" />
<glyph unicode="(" horiz-adv-x="634" d="M149.5 624.5q43.5 350.5 156 627t226.5 419.5h154q-115 -143 -228.5 -419.5t-156.5 -626.5q-43 -348 3 -624.5t126 -422.5h-154q-80 145 -125 420.5t-1.5 626z" />
<glyph unicode=")" horiz-adv-x="634" d="M-20 -422q117 143 230.5 419.5t156.5 627t-4.5 627t-126.5 419.5h153q80 -143 126 -419.5t3 -627t-156.5 -628t-228.5 -418.5h-153z" />
<glyph unicode="*" horiz-adv-x="788" d="M100 1204l68 150l248 -123l-33 -76zM164 913l225 213l60 -45l-173 -262zM438 1536h160l-76 -289h-78zM477 1081l72 45l176 -215l-141 -88zM547 1231l278 125l27 -152l-293 -49z" />
<glyph unicode="+" horiz-adv-x="1064" d="M135 631l17 135h342l41 342h135l-41 -342h342l-17 -135h-342l-41 -342h-135l41 342h-342z" />
<glyph unicode="," horiz-adv-x="450" d="M-25 -233l115 434h213l-231 -434h-97z" />
<glyph unicode="-" horiz-adv-x="757" d="M135 631l17 135h512l-17 -135h-512z" />
<glyph unicode="." horiz-adv-x="450" d="M63 0l25 201h201l-25 -201h-201z" />
<glyph unicode="/" horiz-adv-x="860" d="M-111 -422l965 2093h150l-967 -2093h-148z" />
<glyph unicode="0" horiz-adv-x="1228" d="M147 402.5q0 91.5 6.5 170t20.5 195.5q16 137 32.5 227t43 189.5t65.5 160t96.5 112.5t139.5 75.5t190.5 23.5t185.5 -23.5t122 -75.5t68.5 -112.5t26.5 -161t-4 -188.5t-23.5 -227t-32 -227t-42 -188.5t-65.5 -161t-96.5 -112.5t-140.5 -75.5t-191 -23.5q-92 0 -162 19 t-115 51t-72.5 89.5t-40 114.5t-12.5 148.5zM289 421q2 -38 6 -90t17.5 -80t34 -59.5t51 -47t72.5 -27t95 -11.5q59 0 107.5 11.5t85.5 38t64.5 55.5t49 80t36 94t27.5 114.5t20.5 125t17.5 143.5q23 199 29 346.5t-58.5 231.5t-216.5 84q-59 0 -108.5 -11.5t-86 -39 t-64.5 -54.5t-49.5 -80t-34.5 -93t-26.5 -115.5t-20.5 -126t-20 -142.5q-10 -82 -15 -127t-10 -113.5t-3 -106.5z" />
<glyph unicode="1" horiz-adv-x="1228" d="M131 0l10 90l355 39l155 1280l-352 -31l6 56l447 122h71l-174 -1427l342 -39l-10 -90h-850z" />
<glyph unicode="2" horiz-adv-x="1228" d="M41 0l10 94l846 821q109 104 125 232q16 135 -48.5 206.5t-262.5 71.5q-143 0 -256 -32l-41 -176h-105l33 268q162 72 391 71q123 0 213 -25.5t134 -68.5t72 -97t27 -109.5t-3 -108.5q-12 -100 -65.5 -179t-168.5 -184l-702 -651h690l43 186h102l-39 -319h-995z" />
<glyph unicode="3" horiz-adv-x="1228" d="M76 51l35 299h104v-207q115 -33 268 -32q238 0 340.5 87t120.5 234q20 160 -60.5 228.5t-273.5 68.5h-278l16 135h279q160 0 249 82t105 197q16 133 -59.5 207.5t-294.5 74.5q-143 0 -265 -34l-40 -174h-105l33 268q162 72 391 71q293 0 403.5 -111.5t88.5 -301.5 q-14 -109 -91 -204t-180 -132q125 -29 187.5 -133.5t46.5 -241.5q-55 -453 -631 -452q-246 -1 -389 71z" />
<glyph unicode="4" horiz-adv-x="1228" d="M111 512l10 86l813 958h108l-110 -917h219l-16 -127h-220l-47 -389l183 -21l-13 -102h-508l13 102l186 21l47 389h-665zM303 639h490l81 674z" />
<glyph unicode="5" horiz-adv-x="1228" d="M92 45l35 305h104v-219q94 -25 209 -25q416 0 461 371q8 74 1 129.5t-35.5 88t-56.5 52t-83 26.5t-88 9t-98 2h-9h-286l92 752h809l-39 -319h-104v192h-543l-62 -502q109 10 197 11q84 0 147.5 -8.5t131 -35t107.5 -72.5t60.5 -129t6.5 -196q-59 -498 -627 -497 q-203 -1 -330 65z" />
<glyph unicode="6" horiz-adv-x="1228" d="M150.5 323.5q-9.5 161.5 15.5 383.5q25 201 67.5 347t118.5 264t196 178t283 60q236 0 351 -69l-35 -301h-103v211q-106 29 -229 28q-432 0 -512 -659q55 82 154.5 141.5t238.5 59.5q121 0 206 -32t125 -83t62.5 -115.5t18.5 -132t-8 -131.5q-63 -494 -525 -493 q-211 0 -313 91t-111.5 252.5zM289 473q-45 -367 303 -367q315 0 364 367q43 367 -276 367q-102 0 -179 -34t-119 -91.5t-63.5 -115.5t-29.5 -126z" />
<glyph unicode="7" horiz-adv-x="1228" d="M174 0l918 1409h-754l-45 -192h-105l39 319h1024l-12 -98l-885 -1438h-180z" />
<glyph unicode="8" horiz-adv-x="1228" d="M86 432q14 125 93 232.5t208 144.5q-92 45 -134 132t-30 189q23 186 149 306t369.5 120t341 -119.5t74.5 -306.5q-12 -102 -75.5 -189t-166.5 -132q119 -37 170.5 -143.5t36.5 -233.5q-25 -199 -165 -325.5t-408 -126.5t-378 126.5t-85 325.5zM238 432 q-16 -133 57.5 -229.5t270 -96.5t292.5 96.5t113 229.5q20 154 -64 227.5t-266 73.5q-364 0 -403 -301zM375 1130q-14 -111 54.5 -190.5t228 -79.5t246.5 79t102 191q6 57 -1.5 105.5t-34 94.5t-89 73t-154.5 27q-176 0 -257 -87.5t-95 -212.5z" />
<glyph unicode="9" horiz-adv-x="1228" d="M106 49l35 301h105v-213q100 -27 227 -26q432 0 512 659q-53 -82 -153.5 -141.5t-239.5 -59.5q-121 0 -206 32t-125 83t-62.5 115.5t-17.5 132t9 131.5q59 494 523 493q160 0 257 -52t134 -147t41 -229.5t-21 -298.5q-25 -201 -67.5 -347t-118.5 -264t-196.5 -178 t-284.5 -60q-232 -1 -351 69zM334 1063q-49 -367 274 -367q102 0 179 34t119 91.5t64.5 115.5t30.5 126q41 367 -303 367q-98 0 -170.5 -36t-110.5 -96.5t-56.5 -117t-26.5 -117.5z" />
<glyph unicode=":" horiz-adv-x="450" d="M63 0l25 201h201l-25 -201h-201zM147 668l25 200h201l-25 -200h-201z" />
<glyph unicode=";" horiz-adv-x="450" d="M-25 -233l115 434h213l-231 -434h-97zM139 668l25 200h201l-25 -200h-201z" />
<glyph unicode="&#x37e;" horiz-adv-x="450" d="M-25 -233l115 434h213l-231 -434h-97zM139 668l25 200h201l-25 -200h-201z" />
<glyph unicode="&#x3c;" horiz-adv-x="747" d="M125 631l16 135l553 342l-14 -129l-406 -281l336 -280l-14 -129z" />
<glyph unicode="=" horiz-adv-x="1064" d="M119 496l16 135h819l-16 -135h-819zM152 766l16 135h819l-16 -135h-819z" />
<glyph unicode="&#x3e;" horiz-adv-x="747" d="M94 289l15 129l405 280l-336 281l15 129l471 -342l-17 -135z" />
<glyph unicode="?" horiz-adv-x="1024" d="M162 1217l35 288q53 20 150 35.5t171 15.5q154 0 255 -32.5t144.5 -93t54.5 -126t1 -153.5q-10 -94 -43 -161.5t-94.5 -118t-124 -82t-166.5 -70.5q-109 -43 -140.5 -101.5t-48.5 -187.5h-84q-8 59 -0.5 119.5t29 112t78.5 98.5t149 80q72 27 107 42t84 50t74.5 88 t35.5 129q16 141 -48 208.5t-277 67.5q-106 0 -193 -16l-45 -192h-104zM207 0l24 201h201l-24 -201h-201z" />
<glyph unicode="@" horiz-adv-x="2129" d="M94 280.5q2 104.5 19 231.5q23 180 60.5 321.5t116.5 281.5t193.5 233.5t298 150.5t420.5 57q240 0 408 -40.5t259 -115.5t139 -179.5t48 -234.5t-14 -279q-20 -174 -59 -296t-112 -219.5t-191.5 -144.5t-286.5 -47h-80l-23 84q-178 -104 -332 -104q-422 0 -354 532 q31 248 143.5 390t342.5 142q178 0 305 -106l41 86h80l-109 -897q238 0 342 140.5t141 439.5q12 131 14.5 240.5t-34.5 198.5t-113 151.5t-219 95t-352 32.5q-207 0 -364.5 -51t-253 -131t-161 -206t-95 -245.5t-48.5 -279.5q-16 -131 -17 -234.5t14 -213t63.5 -189.5 t127 -145.5t209 -98t304.5 -32.5q340 0 532 90l-16 -148q-215 -74 -533 -73q-172 0 -307 29.5t-228.5 80.5t-158 128t-99 163t-49 196.5t-12.5 215zM737 363.5q4 -72.5 22.5 -130t73 -92.5t142.5 -35q109 0 178 21q53 12 117 45l82 680q-109 66 -279 66q-88 0 -150.5 -33 t-96 -96.5t-51 -126t-27.5 -150.5q-15 -76 -11 -148.5z" />
<glyph unicode="A" d="M-61 0l12 102l174 19l584 1294l-162 19l12 102h371l282 -1415l170 -19l-12 -102h-487l12 102l170 19l-61 321h-598l-144 -321l174 -19l-12 -102h-485zM461 569h518l-156 815z" />
<glyph unicode="B" horiz-adv-x="1382" d="M31 0l12 102l186 21l156 1290l-180 21l12 102h670q252 0 351 -111q81 -90 81 -229q0 -32 -4 -66q-12 -102 -79 -192t-169 -131q121 -33 175 -138q42 -81 42 -177q0 -29 -4 -60q-23 -197 -159 -314.5t-406 -117.5h-684zM377 135h362q197 0 280 82t99 215q5 36 5 68 q0 106 -53 159q-69 70 -255 70h-366zM465 864h366q289 0 322 266q3 25 3 49q0 90 -44 148q-55 74 -231 74h-351z" />
<glyph unicode="C" horiz-adv-x="1320" d="M133 768q39 332 247 560t535 228q238 0 390 -71l-35 -299h-103v205q-119 35 -268 34q-258 0 -419 -183t-195 -474q-9 -70 -9 -134q0 -201 88 -340q116 -183 373 -183q150 0 277 34l47 205h104l-35 -299q-176 -72 -409 -71q-221 0 -365.5 111.5t-196.5 286.5 q-35 116 -35 249q0 68 9 141z" />
<glyph unicode="D" horiz-adv-x="1484" d="M31 0l12 102l186 21l156 1290l-180 21l12 102h643q182 0 305 -58.5t179.5 -162t74.5 -243.5q8 -60 8 -124q0 -86 -14 -180q-20 -172 -68.5 -305t-132.5 -240.5t-220 -165t-318 -57.5h-643zM377 135h321q260 0 390.5 166t166.5 467q11 87 11 163q0 186 -64 304 q-90 166 -350 166h-322z" />
<glyph unicode="E" horiz-adv-x="1280" d="M31 0l12 102l186 21l156 1290l-180 21l12 102h1075l-39 -319h-104v184h-619l-65 -537h448l43 185h103l-62 -504h-104v184h-444l-72 -594h622l43 184h103l-39 -319h-1075z" />
<glyph unicode="F" horiz-adv-x="1218" d="M31 0l12 102l186 21l156 1290l-180 21l12 102h1055l-39 -319h-105v184h-598l-65 -537h428l43 185h102l-61 -504h-105v184h-423l-74 -606l182 -21l-12 -102h-514z" />
<glyph unicode="G" horiz-adv-x="1413" d="M133 768q39 332 247 560t535 228q260 0 420 -86l-35 -284h-102v190q-141 49 -299 49q-258 0 -419 -183t-195 -474q-9 -70 -9 -134q0 -201 88 -340q116 -183 373 -183q233 0 332 45l64 514l-312 35l13 102h460l-92 -744q-188 -84 -481 -83q-221 0 -365.5 111.5 t-196.5 286.5q-35 116 -35 249q0 68 9 141z" />
<glyph unicode="H" horiz-adv-x="1597" d="M31 0l12 102l186 21l156 1290l-180 21l12 102h514l-12 -102l-189 -21l-65 -549h754l65 549l-180 21l12 102h514l-12 -102l-188 -21l-156 -1290l182 -21l-12 -102h-514l12 102l186 21l74 606h-753l-74 -606l182 -21l-12 -102h-514z" />
<glyph unicode="I" horiz-adv-x="739" d="M51 0l12 102l187 21l156 1290l-181 21l13 102h514l-13 -102l-188 -21l-156 -1290l183 -21l-13 -102h-514z" />
<glyph unicode="J" horiz-adv-x="849" d="M18 -6l17 131q63 -16 141 -16q223 0 244 174l137 1130l-180 21l12 102h514l-12 -102l-189 -21l-135 -1126q-39 -307 -407 -307q-85 0 -142 14z" />
<glyph unicode="K" horiz-adv-x="1454" d="M31 0l12 102l186 21l156 1290l-180 21l12 102h510l-12 -102l-189 -21l-75 -635l610 639l-143 17l12 102h506l-13 -102l-180 -21l-547 -551q119 -27 195 -190l190 -406q43 -92 97.5 -128t134.5 -36q70 0 114 9l-14 -119q-53 -12 -123 -12q-143 0 -216 55t-150 217 l-199 420q-25 53 -76 71q-18 6 -33 7q-30 0 -53 -23l-135 -137l-57 -467l182 -21l-12 -102h-510z" />
<glyph unicode="L" horiz-adv-x="1177" d="M31 0l12 102l186 21l156 1290l-180 21l12 102h514l-12 -102l-189 -21l-153 -1278h581l43 184h103l-39 -319h-1034z" />
<glyph unicode="M" horiz-adv-x="1966" d="M31 0l12 102l186 21l156 1290l-180 21l12 102h371l362 -1116l678 1116h371l-12 -102l-189 -21l-156 -1290l183 -21l-13 -102h-507l12 102l186 21l158 1231l-674 -1118h-115l-362 1118l-141 -1231l182 -21l-12 -102h-508z" />
<glyph unicode="N" horiz-adv-x="1587" d="M31 0l12 102l186 21l156 1290l-180 21l12 102h334l629 -1245l133 1122l-183 21l13 102h508l-13 -102l-188 -21l-170 -1413h-111l-659 1315l-141 -1192l182 -21l-12 -102h-508z" />
<glyph unicode="O" d="M119 531q4 114 14 237q16 131 42 236.5t78 213t125 178t186.5 115.5t258.5 45q147 0 251 -43t157 -118.5t82 -175.5q24 -85 24 -180q0 -17 -1 -34q-5 -114 -15 -237q-16 -133 -42 -237.5t-77 -212t-123.5 -178t-186.5 -115.5t-261 -45q-145 0 -248.5 43t-157 118.5 t-82.5 175.5q-25 88 -25 186q0 14 1 28zM271 515q7 -120 39 -210t118 -142t219 -52t230.5 50t155 146t88 205t48.5 256q15 99 16 190q0 32 -2 63q-7 120 -39 210t-118 142t-219 52t-230.5 -50t-154.5 -146t-88 -205t-49 -256q-15 -99 -15 -190q-1 -32 1 -63z" />
<glyph unicode="P" horiz-adv-x="1300" d="M31 0l12 102l186 21l156 1290l-180 21l12 102h653q139 0 236.5 -38t148 -103.5t67.5 -145.5q10 -47 10 -98q0 -37 -5 -76q-25 -201 -163 -331t-406 -130h-324l-59 -491l182 -21l-12 -102h-514zM451 750h331q346 0 383 325q4 35 5 66q0 260 -308 260h-332z" />
<glyph unicode="Q" d="M125 531q4 114 14 237q16 131 42 236.5t78 213t125 178t186.5 115.5t258.5 45q147 0 251 -43t157 -118.5t82 -175.5q24 -85 24 -180q0 -17 -1 -34q-5 -114 -15 -237q-35 -274 -125 -463.5t-278 -271.5q86 -45 135 -154q45 -98 101.5 -131t168.5 -33q59 0 115 11l-14 -119 q-61 -14 -123 -15q-150 0 -234 53.5t-158 198.5q-23 47 -52 76t-70 41t-73 15.5t-83 3.5q-145 0 -248.5 43t-157 118.5t-81.5 175.5q-25 88 -26 186q0 14 1 28zM278 515q7 -120 38.5 -210t117.5 -142t219 -52t230.5 50t155 146t88 205t49.5 256q15 99 15 190q0 32 -2 63 q-7 120 -39 210t-118 142t-219 52t-230.5 -50t-154.5 -146t-88 -205t-49 -256q-15 -99 -15 -190q0 -32 2 -63z" />
<glyph unicode="R" horiz-adv-x="1464" d="M31 0l12 102l186 21l156 1290l-180 21l12 102h696q274 0 375 -111q79 -87 80 -237q0 -40 -6 -84q-47 -381 -449 -426q37 -43 66 -107l143 -305q43 -92 97.5 -128t134.5 -36q70 0 114 9l-14 -119q-53 -12 -123 -12q-143 0 -217 55t-149 217l-152 321q-31 68 -64.5 83.5 t-115.5 15.5h-191l-67 -549l182 -21l-12 -102h-514zM457 807h385q188 0 265 78t95 219q5 36 5 68q0 94 -41 152q-54 77 -240 77h-396z" />
<glyph unicode="S" horiz-adv-x="1222" d="M57 61l33 289h105v-194q139 -45 305 -45q410 0 456 331q5 35 5 65q0 98 -52 140q-68 55 -266 82q-264 35 -362 124q-77 70 -78 200q0 35 6 75q10 76 41 143.5t93.5 136.5t175 108.5t265.5 39.5q244 0 392 -71l-35 -299h-103v203q-123 37 -276 36q-209 0 -299 -79.5 t-109 -219.5q-4 -31 -4 -57q0 -96 59 -132q75 -46 283 -73q240 -31 343 -124q81 -73 81 -214q0 -39 -6 -84q-12 -86 -49 -161.5t-106.5 -146.5t-191.5 -112.5t-286 -41.5q-104 0 -226 24t-194 57z" />
<glyph unicode="T" horiz-adv-x="1300" d="M133 1217l39 319h1194l-39 -319h-104v184h-400l-155 -1278l182 -21l-12 -102h-514l12 102l186 21l156 1278h-397l-43 -184h-105z" />
<glyph unicode="U" horiz-adv-x="1515" d="M139 1434l13 102h514l-13 -102l-188 -21l-109 -905q-5 -40 -4 -77q0 -58 12 -105q19 -78 55 -117t92 -62.5t99 -28.5t95 -5q397 0 446 395l109 905l-181 21l13 102h514l-13 -102l-188 -21l-113 -932q-14 -125 -65 -219t-115.5 -146.5t-146.5 -85t-146.5 -41.5t-130 -9 t-127 9t-136.5 41.5t-126 85t-79 146.5q-18 62 -18 138q0 39 5 81l112 932z" />
<glyph unicode="V" horiz-adv-x="1454" d="M109 1434l12 102h497l-12 -102l-166 -19l248 -1204l541 1204l-164 19l12 102h498l-12 -102l-177 -21l-675 -1433h-103l-325 1433z" />
<glyph unicode="W" horiz-adv-x="1994" d="M109 1434l12 102h510l-13 -102l-174 -21l91 -1202l505 1325h156l182 -1325l383 1204l-168 19l13 102h510l-13 -102l-188 -21l-488 -1433h-143l-192 1341l-521 -1341h-143l-137 1433z" />
<glyph unicode="X" horiz-adv-x="1515" d="M0 0l12 102l189 21l501 647l-337 643l-170 21l12 102h510l-12 -102l-168 -19l268 -512l393 512l-158 19l13 102h508l-13 -102l-184 -21l-492 -637l342 -653l189 -21l-12 -102h-514l12 102l155 17l-274 524l-405 -524l159 -17l-12 -102h-512z" />
<glyph unicode="Y" horiz-adv-x="1476" d="M129 1434l12 102h508l-12 -102l-170 -19l299 -651l457 651l-166 19l12 102h508l-12 -102l-170 -19l-574 -780l-61 -512l182 -21l-12 -102h-512l12 102l186 21l62 512l-383 780z" />
<glyph unicode="Z" horiz-adv-x="1290" d="M41 0l10 94l1016 1307h-690l-43 -184h-105l39 319h1014l-12 -94l-1014 -1307h764l43 184h102l-39 -319h-1085z" />
<glyph unicode="[" horiz-adv-x="532" d="M51 -422l256 2093h277l-17 -135h-131l-223 -1823h131l-16 -135h-277z" />
<glyph unicode="\" horiz-adv-x="860" d="M137 1671h150l454 -2093h-149z" />
<glyph unicode="]" horiz-adv-x="532" d="M-20 -422l16 135h131l223 1823h-131l17 135h276l-256 -2093h-276z" />
<glyph unicode="^" horiz-adv-x="1105" d="M223 1024l406 512h135l278 -512h-129l-235 371l-326 -371h-129z" />
<glyph unicode="_" horiz-adv-x="655" d="M-121 -512l17 135h653l-17 -135h-653z" />
<glyph unicode="`" horiz-adv-x="1105" d="M387 1536h195l120 -358h-102z" />
<glyph unicode="a" horiz-adv-x="1171" d="M113 512q31 248 143.5 390t341.5 142q178 0 305 -106l41 86h80l-109 -901l183 -21l-13 -102h-264l-26 102q-135 -123 -328 -122q-364 0 -364 395q1 63 10 137zM246 364q4 -73 22.5 -130.5t72.5 -92.5t142 -35q195 0 301 117l76 629q-109 66 -278 66q-88 0 -150.5 -33 t-96.5 -96.5t-51.5 -126t-27.5 -150.5q-11 -59 -11 -116q0 -16 1 -32z" />
<glyph unicode="b" horiz-adv-x="1146" d="M109 1434l12 102h328l-70 -575q137 84 297 83q364 0 363 -395q0 -63 -9 -137q-31 -248 -143.5 -390t-341.5 -142q-156 0 -307 104l-39 -84h-80l170 1413zM283 172q113 -66 278 -66q88 0 150.5 33t96.5 96.5t51.5 126t27.5 150.5q11 59 11 116q0 16 -1 32 q-4 73 -22.5 130.5t-72.5 92.5t-143 35q-109 0 -178 -21q-74 -23 -116 -45z" />
<glyph unicode="c" horiz-adv-x="1013" d="M112 304q-8 47 -9 98q0 53 10 110q29 240 159.5 386t376.5 146q188 0 299 -51l-30 -254h-105v164q-86 14 -180 15q-123 0 -207 -61.5t-120 -146.5t-50 -198q-7 -53 -7 -101q0 -51 8 -96q15 -86 84 -147.5t191 -61.5q164 0 314 48l-15 -123q-127 -51 -311 -51 q-125 0 -214 41.5t-133 113.5t-61 169z" />
<glyph unicode="d" horiz-adv-x="1198" d="M113 512q31 248 143.5 390t341.5 142q139 0 276 -83l54 452l-180 21l12 102h327l-172 -1413l183 -21l-13 -102h-264l-26 102q-135 -123 -328 -122q-364 0 -364 395q1 63 10 137zM246 364q4 -73 22.5 -130.5t72.5 -92.5t142 -35q195 0 301 117l76 629q-25 14 -104 45 q-63 20 -174 21q-88 0 -150.5 -33t-96.5 -96.5t-51.5 -126t-27.5 -150.5q-11 -59 -11 -116q0 -16 1 -32z" />
<glyph unicode="e" horiz-adv-x="1095" d="M112 304q-8 47 -9 98q0 53 10 110q29 240 159.5 386t374.5 146q197 0 282 -85q68 -68 68 -172q0 -25 -4 -52q-27 -264 -477 -295l-268 -18q-2 -141 64.5 -228.5t219.5 -87.5q205 0 342 58l-12 -123q-145 -61 -342 -61q-125 0 -214 41.5t-133 113.5t-61 169zM258 532 l287 27q156 14 224.5 56t78.5 120q3 17 2 33q0 60 -36 102q-46 53 -179 54q-172 0 -262 -111t-115 -281z" />
<glyph unicode="f" horiz-adv-x="819" d="M102 901l13 103l207 22l28 223q39 307 406 307q86 0 141 -14l-14 -129q-66 16 -142 17q-231 0 -254 -181l-28 -225h323l-14 -123h-324l-172 -1413h-137l172 1413h-205z" />
<glyph unicode="g" horiz-adv-x="1136" d="M27 -453l16 142q178 -102 387 -103q96 0 160.5 29t95.5 87t41 100t21 116l18 160q-125 -98 -299 -98q-364 0 -364 395q0 63 10 137q31 248 143.5 390t341.5 142q178 0 305 -106l41 86h80l-133 -1106q-12 -106 -36 -179t-74 -140.5t-141 -100.5t-224 -33q-246 0 -389 82z M246 364q4 -73 22.5 -130.5t72.5 -92.5t142 -35q195 0 301 117l76 629q-109 66 -278 66q-88 0 -150.5 -33t-96.5 -96.5t-51.5 -126t-27.5 -150.5q-11 -59 -11 -116q0 -16 1 -32z" />
<glyph unicode="h" horiz-adv-x="1259" d="M10 0l13 102l186 21l156 1290l-181 21l13 102h323l-69 -575q137 84 290 83q313 0 314 -248q0 -28 -4 -59l-74 -614l182 -21l-12 -102h-328l90 743q3 19 3 37q0 66 -38 98q-47 40 -149 40q-164 0 -289 -66l-88 -729l182 -21l-12 -102h-508z" />
<glyph unicode="i" horiz-adv-x="651" d="M20 0l13 102l186 21l94 778l-182 21l12 102h324l-109 -901l183 -21l-13 -102h-508zM334 1303l24 200h201l-24 -200h-201z" />
<glyph unicode="j" horiz-adv-x="600" d="M-121 -532l15 120q111 14 193.5 70.5t94.5 163.5l129 1079l-180 21l12 102h324l-148 -1221q-12 -100 -84.5 -178t-165 -114.5t-190.5 -42.5zM334 1303l24 200h201l-24 -200h-201z" />
<glyph unicode="k" horiz-adv-x="1269" d="M10 0l13 102l186 21l156 1290l-181 21l13 102h323l-123 -1006l447 375l-146 17l13 102h524l-12 -102l-199 -23l-387 -313q76 -29 149 -180l76 -154q43 -88 91 -121t122 -33q72 0 109 8l-15 -114q-45 -12 -102 -12q-133 0 -204.5 53t-143.5 205l-82 172q-14 29 -36 47 q-19 17 -54 16h-7q-40 -2 -87 -39l-74 -57l-31 -254l182 -21l-12 -102h-508z" />
<glyph unicode="l" horiz-adv-x="651" d="M20 0l13 102l186 21l156 1290l-180 21l12 102h323l-172 -1413l183 -21l-13 -102h-508z" />
<glyph unicode="m" horiz-adv-x="1843" d="M10 0l13 102l186 21l94 778l-182 21l12 102h264l21 -84q158 104 313 104q205 0 273 -116q182 117 331 116q166 0 243 -77q61 -61 61 -169q0 -29 -5 -61l-73 -614l182 -21l-12 -102h-328l90 743q3 20 3 38q0 65 -37 97q-46 40 -140 40q-147 0 -287 -68q3 -25 3 -51.5 t-3 -55.5l-76 -620l183 -21l-13 -102h-327l90 743q3 20 2 38q0 65 -36 97q-46 40 -140 40q-145 0 -275 -62l-88 -733l183 -21l-13 -102h-512z" />
<glyph unicode="n" horiz-adv-x="1259" d="M10 0l13 102l186 21l94 778l-182 21l12 102h264l21 -86q158 106 323 106q313 0 314 -248q0 -28 -4 -59l-74 -614l182 -21l-12 -102h-328l90 743q3 19 3 37q0 66 -38 98q-47 40 -149 40q-160 0 -285 -66l-88 -729l183 -21l-13 -102h-512z" />
<glyph unicode="o" horiz-adv-x="1126" d="M113 512q33 256 150.5 394t365.5 138t333 -138q61 -100 61 -261q0 -62 -9 -133q-33 -256 -151 -394t-365.5 -138t-331.5 138q-61 101 -62 265q1 60 9 129zM250 303q6 -90 70.5 -143.5t193.5 -53.5q96 0 162.5 29t104.5 88.5t57.5 126t31.5 162.5q8 75 8 139q0 37 -2 70 q-7 90 -72 143.5t-192 53.5q-98 0 -164.5 -29t-104.5 -89.5t-56.5 -125t-30.5 -162.5q-8 -79 -8 -146q0 -33 2 -63z" />
<glyph unicode="p" horiz-adv-x="1198" d="M-70 -512l13 102l186 21l156 1290l-181 21l13 102h264l20 -84q178 104 334 104q363 0 363 -398q0 -62 -8 -134q-66 -532 -486 -532q-156 0 -276 83l-56 -452l183 -21l-13 -102h-512zM342 172q39 -23 104 -45q63 -20 175 -21q88 0 150.5 33t96 96.5t51 126t27.5 150.5 q11 59 11 116q0 16 -1 32q-4 73 -22.5 130.5t-72.5 92.5t-142 35q-164 0 -295 -66z" />
<glyph unicode="q" horiz-adv-x="1146" d="M113 512q31 248 143.5 390t341.5 142q178 0 305 -106l41 86h80l-172 -1413l182 -21l-12 -102h-512l12 102l187 21l57 467q-125 -98 -299 -98q-364 0 -364 395q1 63 10 137zM246 364q4 -73 22.5 -130.5t72.5 -92.5t142 -35q195 0 301 117l76 629q-109 66 -278 66 q-88 0 -150.5 -33t-96.5 -96.5t-51.5 -126t-27.5 -150.5q-11 -59 -11 -116q0 -16 1 -32z" />
<glyph unicode="r" horiz-adv-x="931" d="M10 0l13 102l186 21l94 778l-182 21l12 102h264l21 -86q158 106 323 106q80 0 142 -16l-33 -268h-102v158h-23q-160 0 -285 -66l-88 -729l183 -21l-13 -102h-512z" />
<glyph unicode="s" horiz-adv-x="954" d="M66 31l30 254h105v-164q70 -14 182 -15q266 0 291 187q2 17 2 32q0 56 -30 89q-38 41 -177 53q-205 18 -272 87q-56 57 -56 147q0 19 2 40q12 125 114.5 214t303.5 89q176 0 289 -51l-31 -254h-104v164q-82 14 -172 15q-141 0 -197.5 -45.5t-66.5 -131.5q-2 -15 -3 -28 q0 -52 32 -78q40 -33 177 -45q205 -18 274 -89q57 -58 57 -161q0 -21 -3 -45q-14 -133 -122.5 -224t-325.5 -91q-176 0 -299 51z" />
<glyph unicode="t" horiz-adv-x="849" d="M82 901l12 103l207 22l35 285l149 41l-41 -328h359l-15 -123h-358l-80 -649q-2 -16 -2 -31q0 -64 37 -93q45 -36 141 -36q68 0 123 17l-12 -109q-61 -20 -125 -20q-147 0 -236 64q-74 54 -74 162q0 20 3 42l80 653h-203z" />
<glyph unicode="u" horiz-adv-x="1239" d="M98 922l13 102h327l-88 -743q-3 -20 -2 -38q0 -67 37 -98q47 -39 147 -39q180 0 287 103l84 692l-180 21l12 102h328l-109 -901l183 -21l-13 -102h-266l-24 92q-129 -113 -318 -112q-313 0 -313 248q0 28 4 59l74 614z" />
<glyph unicode="v" horiz-adv-x="1146" d="M47 922l12 102h486l-13 -102l-172 -19l140 -719l362 719l-155 19l12 102h485l-12 -102l-176 -21l-494 -921h-104l-211 923z" />
<glyph unicode="w" horiz-adv-x="1638" d="M57 922l13 102h481l-12 -102l-172 -19l65 -682l381 803h152l127 -803l262 682l-160 19l12 102h482l-13 -102l-172 -19l-385 -923h-106l-142 890l-419 -890h-107l-125 923z" />
<glyph unicode="x" horiz-adv-x="1269" d="M20 0l13 102l166 19l368 403l-229 381l-150 17l13 102h440l-12 -102l-133 -15l168 -278l251 278l-124 15l12 102h444l-12 -102l-168 -19l-342 -377l246 -407l149 -17l-12 -102h-440l12 102l131 15l-182 305l-279 -307l127 -13l-12 -102h-445z" />
<glyph unicode="y" horiz-adv-x="1177" d="M98 922l13 102h327l-88 -743q-3 -20 -2 -38q0 -67 37 -98q47 -39 147 -39q180 0 287 103l84 692l-180 21l12 102h328l-133 -1106q-12 -106 -36 -179t-74 -140.5t-141 -100.5t-224 -33q-211 0 -342 58l16 135q143 -72 340 -72q96 0 160.5 29t95.5 87t41 100t20 116l17 150 q-121 -88 -287 -88q-313 0 -313 248q0 28 4 59l74 614z" />
<glyph unicode="z" horiz-adv-x="1024" d="M51 0l10 92l699 811h-453l-33 -143h-102l33 264h747l-10 -92l-698 -811h501l35 143h103l-33 -264h-799z" />
<glyph unicode="{" horiz-adv-x="491" d="M59 -199l119 676q12 74 -65 80h-31l16 135h21q88 0 94 80l47 676q8 113 77 168t181 55h31l-17 -135h-30q-90 0 -96 -80l-46 -676q-8 -92 -79 -155q55 -66 41 -156l-119 -676q-12 -80 76 -80h30l-16 -135h-31q-113 0 -168 55t-35 168z" />
<glyph unicode="|" horiz-adv-x="563" d="M96 -422l256 2093h146l-256 -2093h-146z" />
<glyph unicode="}" horiz-adv-x="491" d="M-20 -422l16 135h31q90 0 96 80l45 676q4 45 29.5 89t58.5 67q-66 51 -49 155l119 676q12 80 -76 80h-31l17 135h30q113 0 168 -54t37 -169l-121 -676q-12 -80 78 -80h21l-17 -135h-31q-80 -6 -86 -80l-45 -676q-8 -115 -77.5 -169t-182.5 -54h-30z" />
<glyph unicode="~" horiz-adv-x="757" d="M92 694l12 107q72 -55 148 -56q47 0 137 66t174 66q92 0 156 -74l-12 -107q-72 55 -148 56q-47 0 -137 -65.5t-174 -65.5q-93 -1 -156 73z" />
<glyph unicode="&#xa1;" horiz-adv-x="450" d="M0 -512l197 1106h82l-74 -1106h-205zM166 823l24 201h201l-24 -201h-201z" />
<glyph unicode="&#xa2;" horiz-adv-x="1228" d="M172 768q33 258 200 395t431 137l108 236h154l-125 -246q123 -16 201 -51l-15 -123q-164 57 -342 58q-195 0 -319.5 -106.5t-149.5 -299.5q-23 -193 77 -299.5t294 -106.5q178 0 354 58l-14 -123q-150 -61 -352 -61q-45 0 -66 2l-108 -238h-154l129 258q-168 47 -248 177 t-55 333z" />
<glyph unicode="&#xa3;" horiz-adv-x="1228" d="M2 0l12 102l187 21l75 616h-186l12 103l189 20l35 289q23 184 153.5 294.5t368.5 110.5q82 0 199.5 -19t177.5 -46l-35 -305h-103v215q-133 29 -253 29q-176 0 -261.5 -65t-103.5 -212l-35 -289h572l-17 -125h-571l-74 -614h633l45 194h102l-39 -319h-1083z" />
<glyph unicode="&#xa5;" horiz-adv-x="1228" d="M115 545l16 135h395l-73 176h-301l16 135h229l-223 545h174l293 -788l485 788h174l-358 -545h229l-16 -135h-301l-115 -176h396l-17 -135h-430l-51 -422l182 -21l-12 -102h-512l12 102l187 21l51 422h-430z" />
<glyph unicode="&#xa7;" horiz-adv-x="1329" d="M59 -461l33 289h105v-195q119 -35 272 -34q211 0 301 76.5t107 213.5q8 74 -8.5 120t-70 75t-102.5 42t-151 32q-8 2 -13 2q-268 47 -352 128t-61 271q29 238 231 350q-57 78 -39 228q10 76 40 142.5t91.5 133t174 105t266.5 38.5q244 0 391 -71l-17 -139l-18 -160h-102 v205q-121 35 -273 34q-211 0 -301 -76.5t-106 -213.5q-8 -74 8 -120t69.5 -75t102.5 -42t151 -32q8 -2 13 -2q268 -47 352 -128t61 -271q-29 -238 -231 -350q57 -84 39 -228q-10 -76 -40 -142.5t-91.5 -133t-174 -105t-265.5 -38.5q-245 -1 -392 71zM260 488.5 q-4 -29.5 8.5 -53t18.5 -40t29.5 -31t42 -23.5t52 -17.5t63.5 -14.5t75 -14q14 -2 22 -4q223 -41 306 -88q172 68 192 264q0 39 4 68.5t-8 53t-18.5 40t-30 31t-42 23.5t-52 17.5t-63.5 14.5t-75 14q-14 2 -22 4q-217 37 -307 88q-170 -68 -191 -264q0 -39 -4 -68.5z" />
<glyph unicode="&#xa8;" horiz-adv-x="1105" d="M360 1303l25 200h201l-25 -200h-201zM770 1303l25 200h200l-24 -200h-201z" />
<glyph unicode="&#xa9;" horiz-adv-x="1392" d="M143 512q18 160 74.5 268.5t142.5 163.5t179.5 77.5t212 22.5t205.5 -22.5t160 -77.5t101.5 -163.5t10.5 -268.5q-18 -158 -74.5 -267.5t-142.5 -164.5t-179.5 -77.5t-212 -22.5t-205.5 22.5t-160 77.5t-101.5 164.5t-10.5 267.5zM280.5 512q-16.5 -127 3 -210t73 -124 t118 -56.5t162.5 -15.5t166.5 15.5t131 56.5t101.5 124t55.5 210t-3 210t-72.5 124t-117.5 56.5t-163 15.5t-167 -15.5t-131 -56.5t-101.5 -124t-55.5 -210zM405.5 512q20.5 166 99.5 237.5t222 71.5q96 0 180 -22l-26 -215h-105v110q-41 4 -63 4q-84 0 -123 -37.5 t-53.5 -148.5t16.5 -148.5t115 -37.5q94 0 184 24l-14 -125q-90 -23 -185 -22q-143 0 -205.5 71.5t-42 237.5z" />
<glyph unicode="&#xab;" horiz-adv-x="1013" d="M102 444l15 136l424 286l-19 -155l-270 -199l223 -199l-20 -157zM492 444l14 136l424 286l-19 -155l-270 -199l223 -199l-20 -157z" />
<glyph unicode="&#xad;" horiz-adv-x="757" d="M135 631l17 135h512l-17 -135h-512z" />
<glyph unicode="&#xae;" horiz-adv-x="1392" d="M143 512q18 160 74.5 268.5t142.5 163.5t179.5 77.5t212 22.5t205.5 -22.5t160 -77.5t101.5 -163.5t10.5 -268.5q-18 -158 -74.5 -267.5t-142.5 -164.5t-179.5 -77.5t-212 -22.5t-205.5 22.5t-160 77.5t-101.5 164.5t-10.5 267.5zM280.5 512q-16.5 -127 3 -210t73 -124 t118 -56.5t162.5 -15.5t166.5 15.5t131 56.5t101.5 124t55.5 210t-3 210t-72.5 124t-117.5 56.5t-163 15.5t-167 -15.5t-131 -56.5t-101.5 -124t-55.5 -210zM430 227l70 570h248q197 0 176 -183q-14 -121 -105 -163l103 -224h-144l-90 203h-108l-25 -203h-125zM594 551h119 q72 0 80 63.5t-64 63.5h-119z" />
<glyph unicode="&#xaf;" horiz-adv-x="1232" d="M371 1178l16 133h561l-16 -133h-561z" />
<glyph unicode="&#x2c9;" horiz-adv-x="1232" d="M371 1178l16 133h561l-16 -133h-561z" />
<glyph unicode="&#xb0;" horiz-adv-x="749" d="M184 1280q18 150 106.5 213t209.5 63t194.5 -63t55.5 -213q-18 -147 -107.5 -211.5t-210.5 -64.5t-193.5 64.5t-54.5 211.5zM305.5 1280q-20.5 -164 141 -164t182 164t-143.5 164q-159 0 -179.5 -164z" />
<glyph unicode="&#xb4;" horiz-adv-x="1105" d="M643 1178l207 358h194l-299 -358h-102z" />
<glyph unicode="&#xb6;" horiz-adv-x="1269" d="M168 1075q27 201 165 331t406 130h654l-13 -102l-188 -21l-156 -1290l183 -21l-13 -102h-329l73 614h-145l-74 -614h-330l13 102l186 21l59 491h-32q-139 0 -236.5 38t-147.5 103.5t-68.5 145.5t-6.5 174zM330 1075q-37 -326 305 -325h41l80 651h-41q-344 0 -385 -326z M821 750h146l80 651h-146z" />
<glyph unicode="&#xb7;" horiz-adv-x="450" d="M141 668l25 200h201l-25 -200h-201z" />
<glyph unicode="&#x2219;" horiz-adv-x="450" d="M141 668l25 200h201l-25 -200h-201z" />
<glyph unicode="&#xb8;" horiz-adv-x="1232" d="M260 -424l35 70q43 -20 113 -21q123 0 133 88q6 49 -44.5 75t-134.5 34l84 178h82l-30 -94q176 -43 159 -191q-10 -84 -76.5 -127t-164.5 -43q-101 0 -156 31z" />
<glyph unicode="&#xbb;" horiz-adv-x="1013" d="M80 158l20 155l271 199l-224 199l19 157l354 -288l-16 -136zM469 158l20 155l271 199l-223 199l18 157l354 -288l-16 -136z" />
<glyph unicode="&#xbf;" horiz-adv-x="1024" d="M4 -127q10 94 43 161.5t94.5 118t124 82t166.5 70.5q109 43 140.5 101.5t48.5 187.5h84q8 -59 0.5 -119.5t-29 -112t-78.5 -98.5t-149 -80q-72 -27 -107 -42t-84 -50t-74.5 -88t-36.5 -129q-16 -141 48.5 -208.5t277.5 -67.5q106 0 193 16l45 192h104l-35 -288 q-53 -20 -150.5 -35.5t-170.5 -15.5q-154 0 -255.5 32.5t-144.5 93t-54 126t-1 153.5zM545 823l24 201h201l-25 -201h-200z" />
<glyph unicode="&#xc0;" d="M-61 0l12 102l174 19l584 1294l-162 19l12 102h371l282 -1415l170 -19l-12 -102h-487l12 102l170 19l-61 321h-598l-144 -321l174 -19l-12 -102h-485zM461 569h518l-156 815zM594 2048h194l121 -358h-102z" />
<glyph unicode="&#xc1;" d="M-61 0l12 102l174 19l584 1294l-162 19l12 102h371l282 -1415l170 -19l-12 -102h-487l12 102l170 19l-61 321h-598l-144 -321l174 -19l-12 -102h-485zM461 569h518l-156 815zM807 1690l207 358h194l-299 -358h-102z" />
<glyph unicode="&#xc2;" d="M-61 0l12 102l174 19l584 1294l-162 19l12 102h371l282 -1415l170 -19l-12 -102h-487l12 102l170 19l-61 321h-598l-144 -321l174 -19l-12 -102h-485zM461 569h518l-156 815zM520 1690l299 358h164l213 -358h-102l-207 237l-264 -237h-103z" />
<glyph unicode="&#xc3;" d="M-61 0l12 102l174 19l584 1294l-162 19l12 102h371l282 -1415l170 -19l-12 -102h-487l12 102l170 19l-61 321h-598l-144 -321l174 -19l-12 -102h-485zM461 569h518l-156 815zM514 1815l14 106q70 -55 148 -55q43 0 88 32.5t100.5 65.5t120.5 33q92 0 158 -74l-13 -106 q-70 55 -147 55q-43 0 -89 -33t-101.5 -65.5t-120.5 -32.5q-88 0 -158 74z" />
<glyph unicode="&#xc4;" d="M-61 0l12 102l174 19l584 1294l-162 19l12 102h371l282 -1415l170 -19l-12 -102h-487l12 102l170 19l-61 321h-598l-144 -321l174 -19l-12 -102h-485zM461 569h518l-156 815zM567 1815l25 200h201l-25 -200h-201zM977 1815l24 200h201l-24 -200h-201z" />
<glyph unicode="&#xc5;" d="M-61 0l12 102l174 19l584 1294l-162 19l12 102h371l282 -1415l170 -19l-12 -102h-487l12 102l170 19l-61 321h-598l-144 -321l174 -19l-12 -102h-485zM461 569h518l-156 815zM678 1868q23 201 227 200q199 0 176 -200q-27 -199 -225 -199q-205 0 -178 199zM780 1868 q-14 -98 88 -99q96 0 111 99q10 100 -86 100q-103 0 -113 -100z" />
<glyph unicode="&#xc6;" horiz-adv-x="2121" d="M-41 0l12 102l176 19l1006 1294l-162 19l13 102h1167l-39 -319h-104v184h-619l-66 -537h449l43 185h102l-61 -504h-104v184h-445l-72 -594h623l43 184h102l-38 -319h-1076l13 102l186 21l74 606h-404l-465 -610l158 -17l-12 -102h-500zM881 864h317l59 496z" />
<glyph unicode="&#xc7;" horiz-adv-x="1320" d="M133 768q39 332 247 560t535 228q238 0 390 -71l-35 -299h-103v205q-119 35 -268 34q-258 0 -419 -183t-195 -474q-37 -291 78.5 -474t373.5 -183q150 0 277 34l47 205h104l-35 -299q-156 -66 -387 -71l-24 -74q176 -43 160 -191q-10 -84 -77 -127t-165 -43 q-100 0 -156 31l35 70q43 -20 113 -21q123 0 133 88q6 49 -44 75t-134 34l75 162q-297 23 -431 246t-95 538z" />
<glyph unicode="&#xc8;" horiz-adv-x="1280" d="M31 0l12 102l186 21l156 1290l-180 21l12 102h1075l-39 -319h-104v184h-619l-65 -537h448l43 185h103l-62 -504h-104v184h-444l-72 -594h622l43 184h103l-39 -319h-1075zM561 2048h195l121 -358h-103z" />
<glyph unicode="&#xc9;" horiz-adv-x="1280" d="M31 0l12 102l186 21l156 1290l-180 21l12 102h1075l-39 -319h-104v184h-619l-65 -537h448l43 185h103l-62 -504h-104v184h-444l-72 -594h622l43 184h103l-39 -319h-1075zM815 1690l207 358h195l-299 -358h-103z" />
<glyph unicode="&#xca;" horiz-adv-x="1280" d="M31 0l12 102l186 21l156 1290l-180 21l12 102h1075l-39 -319h-104v184h-619l-65 -537h448l43 185h103l-62 -504h-104v184h-444l-72 -594h622l43 184h103l-39 -319h-1075zM487 1690l299 358h164l213 -358h-102l-207 237l-264 -237h-103z" />
<glyph unicode="&#xcb;" horiz-adv-x="1280" d="M31 0l12 102l186 21l156 1290l-180 21l12 102h1075l-39 -319h-104v184h-619l-65 -537h448l43 185h103l-62 -504h-104v184h-444l-72 -594h622l43 184h103l-39 -319h-1075zM535 1815l24 200h201l-25 -200h-200zM944 1815l25 200h200l-24 -200h-201z" />
<glyph unicode="&#xcc;" horiz-adv-x="739" d="M51 0l12 102l187 21l156 1290l-181 21l13 102h514l-13 -102l-188 -21l-156 -1290l183 -21l-13 -102h-514zM248 2048h194l121 -358h-102z" />
<glyph unicode="&#xcd;" horiz-adv-x="739" d="M51 0l12 102l187 21l156 1290l-181 21l13 102h514l-13 -102l-188 -21l-156 -1290l183 -21l-13 -102h-514zM461 1690l207 358h194l-299 -358h-102z" />
<glyph unicode="&#xce;" horiz-adv-x="739" d="M51 0l12 102l187 21l156 1290l-181 21l13 102h514l-13 -102l-188 -21l-156 -1290l183 -21l-13 -102h-514zM174 1690l299 358h164l213 -358h-102l-207 237l-265 -237h-102z" />
<glyph unicode="&#xcf;" horiz-adv-x="739" d="M51 0l12 102l187 21l156 1290l-181 21l13 102h514l-13 -102l-188 -21l-156 -1290l183 -21l-13 -102h-514zM221 1815l25 200h200l-24 -200h-201zM631 1815l24 200h201l-25 -200h-200z" />
<glyph unicode="&#xd0;" horiz-adv-x="1484" d="M31 0l12 102l186 21l70 590h-182l14 112h182l72 588l-180 21l12 102h643q182 0 305 -58.5t179.5 -162t75 -243.5t-6.5 -304q-20 -172 -68.5 -305t-132.5 -240.5t-220 -165t-318 -57.5h-643zM377 135h321q260 0 390.5 166t167 467t-53.5 467t-350 166h-322l-71 -576h248 l-15 -112h-246z" />
<glyph unicode="&#xd1;" horiz-adv-x="1587" d="M31 0l12 102l186 21l156 1290l-180 21l12 102h334l629 -1245l133 1122l-183 21l13 102h508l-13 -102l-188 -21l-170 -1413h-111l-659 1315l-141 -1192l182 -21l-12 -102h-508zM659 1815l15 106q72 -55 147 -55q47 0 137.5 65.5t171.5 65.5q94 0 158 -74l-12 -106 q-72 55 -148 55q-47 0 -137 -65.5t-174 -65.5q-88 0 -158 74z" />
<glyph unicode="&#xd2;" d="M119 531.5q4 113.5 14 236.5q16 131 42 236.5t78 213t125 178t186.5 115.5t258.5 45q147 0 251 -43t157 -118.5t81.5 -176t23.5 -214t-15 -236.5q-16 -133 -42 -237.5t-77 -212t-123.5 -178t-186.5 -115.5t-261 -45q-145 0 -248.5 43t-157 118.5t-82 176t-24.5 214z M271.5 515q7.5 -120 39 -210t117.5 -142t219 -52t230.5 50t155 146t88 205t48.5 256q20 133 13.5 253t-38.5 210t-118 142t-219 52t-230.5 -50t-154.5 -146t-88 -205t-49 -256q-21 -133 -13.5 -253zM575 2048h195l121 -358h-103z" />
<glyph unicode="&#xd3;" d="M119 531.5q4 113.5 14 236.5q16 131 42 236.5t78 213t125 178t186.5 115.5t258.5 45q147 0 251 -43t157 -118.5t81.5 -176t23.5 -214t-15 -236.5q-16 -133 -42 -237.5t-77 -212t-123.5 -178t-186.5 -115.5t-261 -45q-145 0 -248.5 43t-157 118.5t-82 176t-24.5 214z M271.5 515q7.5 -120 39 -210t117.5 -142t219 -52t230.5 50t155 146t88 205t48.5 256q20 133 13.5 253t-38.5 210t-118 142t-219 52t-230.5 -50t-154.5 -146t-88 -205t-49 -256q-21 -133 -13.5 -253zM788 1690l207 358h195l-299 -358h-103z" />
<glyph unicode="&#xd4;" d="M119 531.5q4 113.5 14 236.5q16 131 42 236.5t78 213t125 178t186.5 115.5t258.5 45q147 0 251 -43t157 -118.5t81.5 -176t23.5 -214t-15 -236.5q-16 -133 -42 -237.5t-77 -212t-123.5 -178t-186.5 -115.5t-261 -45q-145 0 -248.5 43t-157 118.5t-82 176t-24.5 214z M271.5 515q7.5 -120 39 -210t117.5 -142t219 -52t230.5 50t155 146t88 205t48.5 256q20 133 13.5 253t-38.5 210t-118 142t-219 52t-230.5 -50t-154.5 -146t-88 -205t-49 -256q-21 -133 -13.5 -253zM502 1690l299 358h164l213 -358h-103l-207 237l-264 -237h-102z" />
<glyph unicode="&#xd5;" d="M119 531.5q4 113.5 14 236.5q16 131 42 236.5t78 213t125 178t186.5 115.5t258.5 45q147 0 251 -43t157 -118.5t81.5 -176t23.5 -214t-15 -236.5q-16 -133 -42 -237.5t-77 -212t-123.5 -178t-186.5 -115.5t-261 -45q-145 0 -248.5 43t-157 118.5t-82 176t-24.5 214z M271.5 515q7.5 -120 39 -210t117.5 -142t219 -52t230.5 50t155 146t88 205t48.5 256q20 133 13.5 253t-38.5 210t-118 142t-219 52t-230.5 -50t-154.5 -146t-88 -205t-49 -256q-21 -133 -13.5 -253zM557 1815l14 106q72 -55 148 -55q47 0 137 65.5t172 65.5q94 0 158 -74 l-12 -106q-72 55 -148 55q-47 0 -137 -65.5t-174 -65.5q-88 0 -158 74z" />
<glyph unicode="&#xd6;" d="M119 531.5q4 113.5 14 236.5q16 131 42 236.5t78 213t125 178t186.5 115.5t258.5 45q147 0 251 -43t157 -118.5t81.5 -176t23.5 -214t-15 -236.5q-16 -133 -42 -237.5t-77 -212t-123.5 -178t-186.5 -115.5t-261 -45q-145 0 -248.5 43t-157 118.5t-82 176t-24.5 214z M271.5 515q7.5 -120 39 -210t117.5 -142t219 -52t230.5 50t155 146t88 205t48.5 256q20 133 13.5 253t-38.5 210t-118 142t-219 52t-230.5 -50t-154.5 -146t-88 -205t-49 -256q-21 -133 -13.5 -253zM549 1815l24 200h201l-24 -200h-201zM958 1815l25 200h201l-25 -200h-201z " />
<glyph unicode="&#xd8;" d="M123 0l100 139q-145 186 -90 629q16 131 42 236.5t78 213t125 178t186.5 115.5t258.5 45q225 0 351 -104l61 84h139l-123 -170q119 -186 70 -598q-16 -133 -42 -237.5t-77 -212t-123.5 -178t-186.5 -115.5t-261 -45q-201 0 -324 83l-45 -63h-139zM285 768 q-43 -334 39 -492l757 1049q-90 100 -274 100q-133 0 -230.5 -50t-154.5 -146t-88 -205t-49 -256zM395 184q90 -74 252 -73q133 0 230.5 50t155 146t88 205t48.5 256q35 301 -22 453z" />
<glyph unicode="&#xd9;" horiz-adv-x="1515" d="M139 1434l13 102h514l-13 -102l-188 -21l-109 -905q-12 -104 7.5 -182t55.5 -117t92 -62.5t99 -28.5t95 -5q397 0 446 395l109 905l-181 21l13 102h514l-13 -102l-188 -21l-113 -932q-14 -125 -65 -219t-115.5 -146.5t-146.5 -85t-146.5 -41.5t-130 -9t-127 9 t-136.5 41.5t-126 85t-78.5 146.5t-13.5 219l112 932zM633 2048h194l121 -358h-102z" />
<glyph unicode="&#xda;" horiz-adv-x="1515" d="M139 1434l13 102h514l-13 -102l-188 -21l-109 -905q-12 -104 7.5 -182t55.5 -117t92 -62.5t99 -28.5t95 -5q397 0 446 395l109 905l-181 21l13 102h514l-13 -102l-188 -21l-113 -932q-14 -125 -65 -219t-115.5 -146.5t-146.5 -85t-146.5 -41.5t-130 -9t-127 9 t-136.5 41.5t-126 85t-78.5 146.5t-13.5 219l112 932zM846 1690l207 358h194l-299 -358h-102z" />
<glyph unicode="&#xdb;" horiz-adv-x="1515" d="M139 1434l13 102h514l-13 -102l-188 -21l-109 -905q-12 -104 7.5 -182t55.5 -117t92 -62.5t99 -28.5t95 -5q397 0 446 395l109 905l-181 21l13 102h514l-13 -102l-188 -21l-113 -932q-14 -125 -65 -219t-115.5 -146.5t-146.5 -85t-146.5 -41.5t-130 -9t-127 9 t-136.5 41.5t-126 85t-78.5 146.5t-13.5 219l112 932zM559 1690l299 358h164l213 -358h-102l-207 237l-264 -237h-103z" />
<glyph unicode="&#xdc;" horiz-adv-x="1515" d="M139 1434l13 102h514l-13 -102l-188 -21l-109 -905q-12 -104 7.5 -182t55.5 -117t92 -62.5t99 -28.5t95 -5q397 0 446 395l109 905l-181 21l13 102h514l-13 -102l-188 -21l-113 -932q-14 -125 -65 -219t-115.5 -146.5t-146.5 -85t-146.5 -41.5t-130 -9t-127 9 t-136.5 41.5t-126 85t-78.5 146.5t-13.5 219l112 932zM606 1815l25 200h200l-24 -200h-201zM1016 1815l24 200h201l-24 -200h-201z" />
<glyph unicode="&#xdd;" horiz-adv-x="1476" d="M129 1434l12 102h508l-12 -102l-170 -19l299 -651l457 651l-166 19l12 102h508l-12 -102l-170 -19l-574 -780l-61 -512l182 -21l-12 -102h-512l12 102l186 21l62 512l-383 780zM829 1690l207 358h195l-299 -358h-103z" />
<glyph unicode="&#xde;" horiz-adv-x="1320" d="M31 0l12 102l186 21l156 1290l-180 21l12 102h514l-12 -102l-189 -21l-22 -184h326q139 0 236 -38t146.5 -103.5t68 -145.5t5.5 -174q-25 -201 -163 -331t-406 -130h-324l-22 -184l182 -21l-12 -102h-514zM414 442h331q342 0 383 326t-303 326h-333z" />
<glyph unicode="&#xdf;" horiz-adv-x="1136" d="M41 -512l215 1761q18 150 121.5 228.5t284 78.5t262.5 -78.5t63 -228.5q-10 -88 -51 -151.5t-92 -98t-101.5 -65.5t-88.5 -73t-44 -99q-8 -66 23 -98.5t127 -65.5q158 -53 216 -116.5t42 -188.5q-16 -133 -109.5 -223t-269.5 -90q-57 0 -138 15t-120 36l31 254h104v-162 q55 -16 137 -17q207 0 228 185q10 76 -24 113.5t-144 72.5q-150 47 -199 109.5t-37 175.5q10 80 49 135t90.5 89t102.5 64.5t90 80t47 118.5q12 94 -46 137.5t-163 43.5q-231 0 -254 -181l-215 -1761h-137z" />
<glyph unicode="&#xe0;" horiz-adv-x="1171" d="M113 512q31 248 143.5 390t341.5 142q178 0 305 -106l41 86h80l-109 -901l183 -21l-13 -102h-264l-26 102q-135 -123 -328 -122q-422 0 -354 532zM246 363.5q4 -72.5 22.5 -130t72.5 -92.5t142 -35q195 0 301 117l76 629q-109 66 -278 66q-88 0 -150.5 -33t-96.5 -96.5 t-51.5 -126t-27.5 -150.5q-14 -76 -10 -148.5zM352 1536h195l121 -358h-103z" />
<glyph unicode="&#xe1;" horiz-adv-x="1171" d="M113 512q31 248 143.5 390t341.5 142q178 0 305 -106l41 86h80l-109 -901l183 -21l-13 -102h-264l-26 102q-135 -123 -328 -122q-422 0 -354 532zM246 363.5q4 -72.5 22.5 -130t72.5 -92.5t142 -35q195 0 301 117l76 629q-109 66 -278 66q-88 0 -150.5 -33t-96.5 -96.5 t-51.5 -126t-27.5 -150.5q-14 -76 -10 -148.5zM565 1178l207 358h195l-299 -358h-103z" />
<glyph unicode="&#xe2;" horiz-adv-x="1171" d="M113 512q31 248 143.5 390t341.5 142q178 0 305 -106l41 86h80l-109 -901l183 -21l-13 -102h-264l-26 102q-135 -123 -328 -122q-422 0 -354 532zM246 363.5q4 -72.5 22.5 -130t72.5 -92.5t142 -35q195 0 301 117l76 629q-109 66 -278 66q-88 0 -150.5 -33t-96.5 -96.5 t-51.5 -126t-27.5 -150.5q-14 -76 -10 -148.5zM279 1178l299 358h163l213 -358h-102l-207 237l-264 -237h-102z" />
<glyph unicode="&#xe3;" horiz-adv-x="1171" d="M113 512q31 248 143.5 390t341.5 142q178 0 305 -106l41 86h80l-109 -901l183 -21l-13 -102h-264l-26 102q-135 -123 -328 -122q-422 0 -354 532zM246 363.5q4 -72.5 22.5 -130t72.5 -92.5t142 -35q195 0 301 117l76 629q-109 66 -278 66q-88 0 -150.5 -33t-96.5 -96.5 t-51.5 -126t-27.5 -150.5q-14 -76 -10 -148.5zM324 1303l12 106q70 -55 147 -55q43 0 89 32.5t101.5 65.5t121.5 33q90 0 155 -74l-12 -106q-70 55 -147 55q-43 0 -88.5 -33t-100.5 -65.5t-121 -32.5q-91 0 -157 74z" />
<glyph unicode="&#xe4;" horiz-adv-x="1171" d="M113 512q31 248 143.5 390t341.5 142q178 0 305 -106l41 86h80l-109 -901l183 -21l-13 -102h-264l-26 102q-135 -123 -328 -122q-422 0 -354 532zM246 363.5q4 -72.5 22.5 -130t72.5 -92.5t142 -35q195 0 301 117l76 629q-109 66 -278 66q-88 0 -150.5 -33t-96.5 -96.5 t-51.5 -126t-27.5 -150.5q-14 -76 -10 -148.5zM326 1303l24 200h201l-25 -200h-200zM735 1303l25 200h201l-25 -200h-201z" />
<glyph unicode="&#xe5;" horiz-adv-x="1171" d="M113 512q31 248 143.5 390t341.5 142q178 0 305 -106l41 86h80l-109 -901l183 -21l-13 -102h-264l-26 102q-135 -123 -328 -122q-422 0 -354 532zM246 363.5q4 -72.5 22.5 -130t72.5 -92.5t142 -35q195 0 301 117l76 629q-109 66 -278 66q-88 0 -150.5 -33t-96.5 -96.5 t-51.5 -126t-27.5 -150.5q-14 -76 -10 -148.5zM434 1356q27 201 228 200q203 0 176 -200q-23 -199 -226 -199q-201 0 -178 199zM537 1356q-6 -53 16 -76t72 -23q100 0 110 99q14 100 -86 100q-98 0 -112 -100z" />
<glyph unicode="&#xe6;" horiz-adv-x="1712" d="M66 287q16 133 107 207.5t302 74.5h297q8 68 0 130.5t-29.5 110.5t-76 76.5t-138.5 28.5q-205 0 -344 -57l15 123q145 61 346 61q133 0 218 -55t118 -145q53 90 151 146t234 56q197 0 281.5 -85t66.5 -224q-16 -133 -108.5 -207.5t-303.5 -74.5h-297q-6 -76 1 -131.5 t31 -107.5t77 -80t137 -28q205 0 344 58l-14 -123q-145 -61 -346 -61q-133 0 -218.5 55t-117.5 145q-53 -90 -151.5 -146.5t-233.5 -56.5q-197 0 -281.5 85.5t-66.5 224.5zM211 287q-10 -82 37 -132.5t182 -50.5q162 0 232.5 92.5t95.5 256.5h-307q-123 0 -176.5 -42 t-63.5 -124zM920 569h307q123 0 177 42t64.5 124t-37 132.5t-182.5 50.5q-162 0 -233 -92.5t-96 -256.5z" />
<glyph unicode="&#xe7;" horiz-adv-x="1013" d="M113 512q29 240 159.5 386t376.5 146q188 0 299 -51l-30 -254h-105v164q-86 14 -180 15q-123 0 -207 -61.5t-120 -146.5t-50 -198q-14 -111 1 -197t84 -147.5t191 -61.5q164 0 314 48l-15 -123q-121 -47 -286 -51l-25 -74q176 -43 160 -191q-10 -84 -76.5 -127t-165 -43 t-155.5 31l34 70q43 -20 113 -21q123 0 133 88q6 49 -44 75t-134 34l76 162q-213 18 -295 160.5t-53 367.5z" />
<glyph unicode="&#xe8;" horiz-adv-x="1095" d="M111.5 304q-17.5 97 1.5 208q29 240 159.5 386t374.5 146q197 0 282 -85t64 -224q-27 -264 -477 -295l-268 -18q-2 -141 64.5 -228.5t219.5 -87.5q205 0 342 58l-12 -123q-145 -61 -342 -61q-125 0 -214 41.5t-133 113.5t-61.5 169zM258 532l287 27q156 14 224.5 56 t78.5 120q12 82 -34 135.5t-179 53.5q-172 0 -262 -111t-115 -281zM397 1536h195l121 -358h-103z" />
<glyph unicode="&#xe9;" horiz-adv-x="1095" d="M111.5 304q-17.5 97 1.5 208q29 240 159.5 386t374.5 146q197 0 282 -85t64 -224q-27 -264 -477 -295l-268 -18q-2 -141 64.5 -228.5t219.5 -87.5q205 0 342 58l-12 -123q-145 -61 -342 -61q-125 0 -214 41.5t-133 113.5t-61.5 169zM258 532l287 27q156 14 224.5 56 t78.5 120q12 82 -34 135.5t-179 53.5q-172 0 -262 -111t-115 -281zM610 1178l207 358h195l-299 -358h-103z" />
<glyph unicode="&#xea;" horiz-adv-x="1095" d="M111.5 304q-17.5 97 1.5 208q29 240 159.5 386t374.5 146q197 0 282 -85t64 -224q-27 -264 -477 -295l-268 -18q-2 -141 64.5 -228.5t219.5 -87.5q205 0 342 58l-12 -123q-145 -61 -342 -61q-125 0 -214 41.5t-133 113.5t-61.5 169zM258 532l287 27q156 14 224.5 56 t78.5 120q12 82 -34 135.5t-179 53.5q-172 0 -262 -111t-115 -281zM324 1178l299 358h163l213 -358h-102l-207 237l-264 -237h-102z" />
<glyph unicode="&#xeb;" horiz-adv-x="1095" d="M111.5 304q-17.5 97 1.5 208q29 240 159.5 386t374.5 146q197 0 282 -85t64 -224q-27 -264 -477 -295l-268 -18q-2 -141 64.5 -228.5t219.5 -87.5q205 0 342 58l-12 -123q-145 -61 -342 -61q-125 0 -214 41.5t-133 113.5t-61.5 169zM258 532l287 27q156 14 224.5 56 t78.5 120q12 82 -34 135.5t-179 53.5q-172 0 -262 -111t-115 -281zM371 1303l24 200h201l-25 -200h-200zM780 1303l25 200h201l-25 -200h-201z" />
<glyph unicode="&#xec;" horiz-adv-x="651" d="M20 0l13 102l186 21l94 778l-182 21l12 102h324l-109 -901l183 -21l-13 -102h-508zM154 1536h194l121 -358h-102z" />
<glyph unicode="&#xed;" horiz-adv-x="651" d="M20 0l13 102l186 21l94 778l-182 21l12 102h324l-109 -901l183 -21l-13 -102h-508zM367 1178l206 358h195l-299 -358h-102z" />
<glyph unicode="&#xee;" horiz-adv-x="651" d="M20 0l13 102l186 21l94 778l-182 21l12 102h324l-109 -901l183 -21l-13 -102h-508zM80 1178l299 358h164l213 -358h-103l-207 237l-264 -237h-102z" />
<glyph unicode="&#xef;" horiz-adv-x="651" d="M20 0l13 102l186 21l94 778l-182 21l12 102h324l-109 -901l183 -21l-13 -102h-508zM127 1303l25 200h200l-24 -200h-201zM537 1303l24 200h201l-25 -200h-200z" />
<glyph unicode="&#xf0;" horiz-adv-x="1126" d="M112.5 512q30.5 256 148.5 394t366 138q123 0 213 -55q-43 145 -160 283l-332 -160l17 121l241 117q-92 86 -254 186h234q86 -57 155 -123l252 123l-14 -121l-166 -80q260 -326 201 -823q-16 -125 -48 -217t-90.5 -166t-152.5 -111.5t-223 -37.5q-248 0 -333 138 t-54.5 394zM250 303q6 -90 70.5 -143.5t193.5 -53.5q96 0 162.5 29t104.5 88.5t57.5 126t31.5 162.5q12 119 5 209t-71.5 143.5t-191.5 53.5q-98 0 -164.5 -29t-104.5 -89.5t-56.5 -125t-30.5 -162.5q-12 -119 -6 -209z" />
<glyph unicode="&#xf1;" horiz-adv-x="1259" d="M10 0l13 102l186 21l94 778l-182 21l12 102h264l21 -86q158 106 323 106q348 0 310 -307l-74 -614l182 -21l-12 -102h-328l90 743q12 94 -35 134.5t-149 40.5q-160 0 -285 -66l-88 -729l183 -21l-13 -102h-512zM430 1303l12 106q70 -55 148 -55q43 0 89 32.5t101.5 65.5 t120.5 33q90 0 156 -74l-13 -106q-70 55 -147 55q-43 0 -88 -33t-100.5 -65.5t-120.5 -32.5q-92 0 -158 74z" />
<glyph unicode="&#xf2;" horiz-adv-x="1126" d="M113 512q33 256 150.5 394t365.5 138t333 -138t52 -394t-151 -394t-365.5 -138t-331.5 138t-53 394zM250 303q6 -90 70.5 -143.5t193.5 -53.5q96 0 162.5 29t104.5 88.5t57.5 126t31.5 162.5q12 119 5 209t-71.5 143.5t-191.5 53.5q-98 0 -164.5 -29t-104.5 -89.5 t-56.5 -125t-30.5 -162.5q-12 -119 -6 -209zM381 1536h194l121 -358h-102z" />
<glyph unicode="&#xf3;" horiz-adv-x="1126" d="M113 512q33 256 150.5 394t365.5 138t333 -138t52 -394t-151 -394t-365.5 -138t-331.5 138t-53 394zM250 303q6 -90 70.5 -143.5t193.5 -53.5q96 0 162.5 29t104.5 88.5t57.5 126t31.5 162.5q12 119 5 209t-71.5 143.5t-191.5 53.5q-98 0 -164.5 -29t-104.5 -89.5 t-56.5 -125t-30.5 -162.5q-12 -119 -6 -209zM594 1178l207 358h194l-299 -358h-102z" />
<glyph unicode="&#xf4;" horiz-adv-x="1126" d="M113 512q33 256 150.5 394t365.5 138t333 -138t52 -394t-151 -394t-365.5 -138t-331.5 138t-53 394zM250 303q6 -90 70.5 -143.5t193.5 -53.5q96 0 162.5 29t104.5 88.5t57.5 126t31.5 162.5q12 119 5 209t-71.5 143.5t-191.5 53.5q-98 0 -164.5 -29t-104.5 -89.5 t-56.5 -125t-30.5 -162.5q-12 -119 -6 -209zM307 1178l299 358h164l213 -358h-102l-207 237l-264 -237h-103z" />
<glyph unicode="&#xf5;" horiz-adv-x="1126" d="M113 512q33 256 150.5 394t365.5 138t333 -138t52 -394t-151 -394t-365.5 -138t-331.5 138t-53 394zM250 303q6 -90 70.5 -143.5t193.5 -53.5q96 0 162.5 29t104.5 88.5t57.5 126t31.5 162.5q12 119 5 209t-71.5 143.5t-191.5 53.5q-98 0 -164.5 -29t-104.5 -89.5 t-56.5 -125t-30.5 -162.5q-12 -119 -6 -209zM352 1303l13 106q70 -55 147 -55q43 0 89 32.5t101.5 65.5t120.5 33q90 0 156 -74l-12 -106q-70 55 -148 55q-43 0 -88 -33t-100.5 -65.5t-120.5 -32.5q-92 0 -158 74z" />
<glyph unicode="&#xf6;" horiz-adv-x="1126" d="M113 512q33 256 150.5 394t365.5 138t333 -138t52 -394t-151 -394t-365.5 -138t-331.5 138t-53 394zM250 303q6 -90 70.5 -143.5t193.5 -53.5q96 0 162.5 29t104.5 88.5t57.5 126t31.5 162.5q12 119 5 209t-71.5 143.5t-191.5 53.5q-98 0 -164.5 -29t-104.5 -89.5 t-56.5 -125t-30.5 -162.5q-12 -119 -6 -209zM354 1303l25 200h201l-25 -200h-201zM764 1303l24 200h201l-24 -200h-201z" />
<glyph unicode="&#xf8;" horiz-adv-x="1126" d="M61 0l103 123q-82 131 -49 389q33 256 150.5 394t365.5 138q164 0 258 -63l37 43h141l-102 -121q84 -129 51 -391q-33 -256 -150.5 -394t-365.5 -138q-166 0 -260 65l-37 -45h-142zM258 512q-25 -176 8 -268l531 626q-68 47 -183 48q-98 0 -164.5 -29t-104.5 -89.5 t-56.5 -125t-30.5 -162.5zM332 154q63 -47 184 -48q96 0 162.5 29t104.5 88.5t57.5 126t31.5 162.5q20 180 -10 268z" />
<glyph unicode="&#xf9;" horiz-adv-x="1239" d="M98 922l13 102h327l-88 -743q-12 -96 35 -135.5t147 -39.5q180 0 287 103l84 692l-180 21l12 102h328l-109 -901l183 -21l-13 -102h-266l-24 92q-129 -113 -318 -112q-348 0 -309 307l74 614zM436 1536h195l121 -358h-103z" />
<glyph unicode="&#xfa;" horiz-adv-x="1239" d="M98 922l13 102h327l-88 -743q-12 -96 35 -135.5t147 -39.5q180 0 287 103l84 692l-180 21l12 102h328l-109 -901l183 -21l-13 -102h-266l-24 92q-129 -113 -318 -112q-348 0 -309 307l74 614zM649 1178l207 358h195l-299 -358h-103z" />
<glyph unicode="&#xfb;" horiz-adv-x="1239" d="M98 922l13 102h327l-88 -743q-12 -96 35 -135.5t147 -39.5q180 0 287 103l84 692l-180 21l12 102h328l-109 -901l183 -21l-13 -102h-266l-24 92q-129 -113 -318 -112q-348 0 -309 307l74 614zM362 1178l300 358h163l213 -358h-102l-207 237l-264 -237h-103z" />
<glyph unicode="&#xfc;" horiz-adv-x="1239" d="M98 922l13 102h327l-88 -743q-12 -96 35 -135.5t147 -39.5q180 0 287 103l84 692l-180 21l12 102h328l-109 -901l183 -21l-13 -102h-266l-24 92q-129 -113 -318 -112q-348 0 -309 307l74 614zM410 1303l24 200h201l-25 -200h-200zM819 1303l25 200h200l-24 -200h-201z " />
<glyph unicode="&#xfd;" horiz-adv-x="1177" d="M98 922l13 102h327l-88 -743q-12 -96 35 -135.5t147 -39.5q180 0 287 103l84 692l-180 21l12 102h328l-133 -1106q-12 -106 -36 -179t-74 -140.5t-141 -100.5t-224 -33q-211 0 -342 58l16 135q143 -72 340 -72q96 0 160.5 29t95.5 87t41 100t20 116l17 150 q-121 -88 -287 -88q-348 0 -309 307l74 614zM633 1178l207 358h194l-299 -358h-102z" />
<glyph unicode="&#xfe;" horiz-adv-x="1146" d="M-121 -512l12 102l187 21l219 1802l-180 21l12 102h328l-70 -575q137 84 297 83q422 0 354 -532q-31 -248 -143.5 -390t-341.5 -142q-156 0 -277 83l-55 -452l182 -21l-12 -102h-512zM291 172q39 -23 104 -45q63 -20 174 -21q88 0 150.5 33t96.5 96.5t51.5 126 t27.5 150.5q14 76 10 148.5t-22.5 130t-72.5 92.5t-142 35q-109 0 -179 -21q-74 -23 -116 -45z" />
<glyph unicode="&#xff;" horiz-adv-x="1177" d="M98 922l13 102h327l-88 -743q-12 -96 35 -135.5t147 -39.5q180 0 287 103l84 692l-180 21l12 102h328l-133 -1106q-12 -106 -36 -179t-74 -140.5t-141 -100.5t-224 -33q-211 0 -342 58l16 135q143 -72 340 -72q96 0 160.5 29t95.5 87t41 100t20 116l17 150 q-121 -88 -287 -88q-348 0 -309 307l74 614zM410 1303l24 200h201l-25 -200h-200zM819 1303l25 200h200l-24 -200h-201z" />
<glyph unicode="&#x131;" horiz-adv-x="651" d="M20 0l13 102l186 21l94 778l-182 21l12 102h324l-109 -901l183 -21l-13 -102h-508z" />
<glyph unicode="&#x152;" horiz-adv-x="1853" d="M122 521.5q-3 115.5 11 246.5q20 172 68.5 305t133.5 240.5t221 165t318 57.5h930l-39 -319h-104v184h-539l-65 -537h368l43 185h103l-62 -504h-104v184h-365l-71 -594h542l43 184h103l-39 -319h-930q-147 0 -255.5 38t-172 106.5t-99.5 165t-39 212zM291 768 q-37 -299 54 -466t351 -167h127l154 1266h-127q-260 0 -391 -167t-168 -466z" />
<glyph unicode="&#x153;" horiz-adv-x="1861" d="M113 512q33 256 150.5 394t365.5 138q281 0 360 -194q141 195 416 194q197 0 282 -85t64 -224q-27 -264 -477 -295l-268 -18q-2 -141 64.5 -228.5t219.5 -87.5q205 0 342 58l-12 -123q-145 -61 -342 -61q-276 0 -371 196q-125 -197 -409 -196q-248 0 -332 138t-53 394z M250 303q6 -90 70.5 -143.5t193.5 -53.5q96 0 162.5 29t104.5 88.5t57.5 126t31.5 162.5q12 119 5 209t-71.5 143.5t-191.5 53.5q-98 0 -164.5 -29t-104.5 -89.5t-56.5 -125t-30.5 -162.5q-12 -119 -6 -209zM1016 532l287 27q156 14 224 56t79 120q12 82 -34 135.5 t-179 53.5q-172 0 -262 -111t-115 -281z" />
<glyph unicode="&#x178;" horiz-adv-x="1476" d="M129 1434l12 102h508l-12 -102l-170 -19l299 -651l457 651l-166 19l12 102h508l-12 -102l-170 -19l-574 -780l-61 -512l182 -21l-12 -102h-512l12 102l186 21l62 512l-383 780zM590 1815l24 200h201l-24 -200h-201zM999 1815l25 200h201l-25 -200h-201z" />
<glyph unicode="&#x192;" horiz-adv-x="1228" d="M139 741l13 103l206 22l35 291q25 201 152 300t327 99q219 0 342 -55l-14 -123q-150 51 -342 52q-131 0 -220 -63.5t-108 -209.5l-34 -293h589l-14 -123h-590l-90 -741h-137l88 741h-203z" />
<glyph unicode="&#x2c6;" horiz-adv-x="1105" d="M313 1178l299 358h164l213 -358h-102l-207 237l-264 -237h-103z" />
<glyph unicode="&#x2c7;" horiz-adv-x="1105" d="M356 1536h103l207 -238l264 238h102l-299 -358h-164z" />
<glyph unicode="&#x2d8;" horiz-adv-x="1232" d="M375 1536h104q-25 -256 183 -256q205 0 243 256h105q-27 -188 -121 -283.5t-241.5 -95.5t-219 95.5t-53.5 283.5z" />
<glyph unicode="&#x2d9;" horiz-adv-x="1105" d="M565 1303l25 200h201l-25 -200h-201z" />
<glyph unicode="&#x2da;" horiz-adv-x="1232" d="M469 1356q27 201 227 200q203 0 176 -200q-23 -199 -225 -199q-201 0 -178 199zM571 1356q-6 -53 16.5 -76t71.5 -23q100 0 111 99q14 100 -86 100q-99 0 -113 -100z" />
<glyph unicode="&#x2db;" horiz-adv-x="1232" d="M379 -268q16 129 149.5 234.5t337.5 133.5l-12 -100q-119 0 -220.5 -68.5t-113.5 -175.5q-14 -115 113 -114q37 0 77 7t60 15l23 6l-13 -106q-78 -39 -198 -39q-94 0 -154.5 53.5t-48.5 153.5z" />
<glyph unicode="&#x2dc;" horiz-adv-x="1232" d="M358 1303l13 106q72 -55 147 -55q47 0 137 65.5t174 65.5q92 0 156 -74l-12 -106q-72 55 -148 55q-47 0 -137 -65.5t-172 -65.5q-95 0 -158 74z" />
<glyph unicode="&#x2dd;" horiz-adv-x="1105" d="M426 1178l207 358h194l-299 -358h-102zM733 1178l207 358h195l-299 -358h-103z" />
<glyph unicode="&#x2000;" horiz-adv-x="1034" />
<glyph unicode="&#x2001;" horiz-adv-x="2068" />
<glyph unicode="&#x2002;" horiz-adv-x="1034" />
<glyph unicode="&#x2003;" horiz-adv-x="2068" />
<glyph unicode="&#x2004;" horiz-adv-x="688" />
<glyph unicode="&#x2005;" horiz-adv-x="516" />
<glyph unicode="&#x2006;" horiz-adv-x="344" />
<glyph unicode="&#x2007;" horiz-adv-x="344" />
<glyph unicode="&#x2008;" horiz-adv-x="258" />
<glyph unicode="&#x2009;" horiz-adv-x="413" />
<glyph unicode="&#x200a;" horiz-adv-x="114" />
<glyph unicode="&#x2010;" horiz-adv-x="757" d="M135 631l17 135h512l-17 -135h-512z" />
<glyph unicode="&#x2011;" horiz-adv-x="757" d="M135 631l17 135h512l-17 -135h-512z" />
<glyph unicode="&#x2012;" horiz-adv-x="757" d="M135 631l17 135h512l-17 -135h-512z" />
<glyph unicode="&#x2013;" horiz-adv-x="1167" d="M135 631l17 135h921l-16 -135h-922z" />
<glyph unicode="&#x2014;" horiz-adv-x="1576" d="M135 631l17 135h1331l-17 -135h-1331z" />
<glyph unicode="&#x2018;" horiz-adv-x="364" d="M70 1024l276 512h62l-125 -512h-213z" />
<glyph unicode="&#x2019;" horiz-adv-x="364" d="M141 1024l125 512h213l-276 -512h-62z" />
<glyph unicode="&#x201a;" horiz-adv-x="364" d="M-18 -328l124 512h213l-276 -512h-61z" />
<glyph unicode="&#x201c;" horiz-adv-x="671" d="M70 1024l276 512h62l-125 -512h-213zM377 1024l276 512h62l-125 -512h-213z" />
<glyph unicode="&#x201d;" horiz-adv-x="671" d="M141 1024l125 512h213l-276 -512h-62zM449 1024l124 512h213l-276 -512h-61z" />
<glyph unicode="&#x201e;" horiz-adv-x="671" d="M-18 -328l124 512h213l-276 -512h-61zM289 -328l125 512h213l-277 -512h-61z" />
<glyph unicode="&#x2020;" horiz-adv-x="788" d="M117 1108l20 160l283 -41l-8 -78zM303 616l127 512h78v-512h-205zM438 1536h160l-76 -289h-78zM530 1149l9 78l295 41l-21 -160z" />
<glyph unicode="&#x2021;" horiz-adv-x="788" d="M68 700l20 160l283 -41l-9 -78zM117 1108l20 160l283 -41l-8 -78zM254 209l125 512h78l2 -512h-205zM391 983l39 145h78l2 -145l-39 -143h-78zM438 1536h160l-76 -289h-78zM481 741l8 78l295 41l-20 -160zM530 1149l9 78l295 41l-21 -160z" />
<glyph unicode="&#x2022;" horiz-adv-x="819" d="M143 512l62 512h512l-62 -512h-512z" />
<glyph unicode="&#x2026;" horiz-adv-x="2027" d="M176 0l25 201h200l-24 -201h-201zM850 0l24 201h201l-24 -201h-201zM1526 0l24 201h201l-25 -201h-200z" />
<glyph unicode="&#x202f;" horiz-adv-x="413" />
<glyph unicode="&#x2039;" horiz-adv-x="624" d="M102 444l15 136l424 286l-19 -155l-270 -199l223 -199l-20 -157z" />
<glyph unicode="&#x203a;" horiz-adv-x="624" d="M80 158l20 155l271 199l-224 199l19 157l354 -288l-16 -136z" />
<glyph unicode="&#x205f;" horiz-adv-x="516" />
<glyph unicode="&#x20ac;" horiz-adv-x="1228" d="M125 545l16 135h123l21 176h-123l16 135h131q57 283 190.5 424t393.5 141q193 0 319 -57l-16 -123q-152 53 -317 54q-184 0 -281.5 -112t-144.5 -327h571l-63 -135h-533l-20 -176h471l-64 -135h-416q-6 -217 63.5 -328t254.5 -111q164 0 332 54l-15 -123 q-141 -57 -334 -57q-262 0 -359 141t-85 424h-131z" />
<glyph unicode="&#x2122;" horiz-adv-x="1288" d="M135 1395l19 141h454l-18 -141h-53v80h-127l-48 -390l78 -8l-6 -53h-233l6 53l82 8l47 390h-129l-19 -80h-53zM614 1024l7 53l81 8l48 388l-78 10l6 53h178l123 -373l215 373h176l-6 -53l-82 -10l-47 -388l78 -8l-6 -53h-146v2l-2 -2h-80l6 53l84 8l52 379l-222 -374h-59 l-127 374l-45 -379l80 -8l-6 -53h-228z" />
<glyph unicode="&#x25ca;" horiz-adv-x="1863" d="M102 0l187 1536h1536l-187 -1536h-1536zM264 135h1245l154 1266h-1245zM342 301l524 467l-409 467l108 96l410 -467l524 467l84 -96l-524 -467l409 -467l-106 -96l-412 467l-522 -467z" />
<glyph unicode="&#xe000;" horiz-adv-x="1025" d="M0 1025h1025v-1025h-1025v1025z" />
<glyph unicode="&#xfb01;" d="M102 901l13 103l207 22l22 172q20 176 170 267t406 91q231 0 387 -71l-17 -139q-188 80 -387 79q-393 0 -424 -231l-20 -170h790l-108 -901l182 -21l-12 -102h-508l12 102l186 21l95 778h-652l-172 -1413h-137l172 1413h-205z" />
<glyph unicode="&#xfb02;" d="M102 901l13 103l207 22l22 172q20 176 170 267t406 91q231 0 387 -71l-166 -1362l182 -21l-12 -102h-508l12 102l186 21l154 1272q-117 31 -252 30q-393 0 -424 -231l-20 -170h323l-14 -123h-324l-172 -1413h-137l172 1413h-205z" />
</font>
</defs>
</svg>
